<svg xmlns="http://www.w3.org/2000/svg" viewBox="0 0 256 256"><rect width="256" height="256" rx="128" fill="#eef8fb"/><circle cx="128" cy="133" r="91" fill="#fff" opacity=".35"/><path d="M53 256 Q57 192 100 174 H156 Q201 192 204 256Z" fill="#604b3b"/><path d="M70 114 Q64 42 128 42 Q192 43 188 121 L170 148 L164 79 Q128 57 90 80 L86 145 Z" fill="#171717"/><ellipse cx="128" cy="111" rx="55" ry="66" fill="#f1c0a2"/><ellipse cx="76" cy="112" rx="9" ry="16" fill="#f1c0a2"/><ellipse cx="180" cy="112" rx="9" ry="16" fill="#f1c0a2"/><circle cx="102" cy="99" r="5" fill="#2b211d"/><circle cx="154" cy="99" r="5" fill="#2b211d"/><path d="M128 101 q-5 22 2 27" stroke="#9a674d" stroke-width="3" fill="none" stroke-linecap="round"/><path d="M112 130 Q128 136 144 130" stroke="#842f35" stroke-width="5" fill="none" stroke-linecap="round"/><circle cx="177" cy="119" r="6" fill="#d7a735"/></svg>