<svg xmlns="http://www.w3.org/2000/svg" viewBox="0 0 256 256"><rect width="256" height="256" rx="128" fill="#f3f0ff"/><circle cx="128" cy="133" r="91" fill="#fff" opacity=".35"/><path d="M53 256 Q57 192 100 174 H156 Q201 192 204 256Z" fill="#3f2d24"/><path d="M70 95 Q61 41 126 39 Q190 40 186 105 Q163 63 127 64 Q93 61 70 95Z" fill="#171717"/><path d="M80 70 Q110 35 142 52 Q158 57 176 74" fill="none" stroke="#171717" stroke-width="19" stroke-linecap="round"/><ellipse cx="128" cy="111" rx="55" ry="66" fill="#c98c63"/><ellipse cx="76" cy="112" rx="9" ry="16" fill="#c98c63"/><ellipse cx="180" cy="112" rx="9" ry="16" fill="#c98c63"/><circle cx="102" cy="99" r="5" fill="#2b211d"/><circle cx="154" cy="99" r="5" fill="#2b211d"/><path d="M128 101 q-5 22 2 27" stroke="#9a674d" stroke-width="3" fill="none" stroke-linecap="round"/><path d="M108 128 Q128 136 148 124" stroke="#842f35" stroke-width="5" fill="none" stroke-linecap="round"/><path d="M91 126 Q102 164 128 170 Q157 163 166 126 Q153 149 128 150 Q105 148 91 126Z" fill="#3b2a22" opacity=".78"/></svg>