<svg xmlns="http://www.w3.org/2000/svg" viewBox="0 0 256 256"><rect width="256" height="256" rx="128" fill="#e9fbf3"/><circle cx="128" cy="133" r="91" fill="#fff" opacity=".35"/><path d="M53 256 Q57 192 100 174 H156 Q201 192 204 256Z" fill="#d49c43"/><path d="M74 84 Q82 43 128 43 Q174 45 184 84 Q153 62 128 65 Q102 61 74 84Z" fill="#171717"/><ellipse cx="128" cy="111" rx="55" ry="66" fill="#e1a779"/><ellipse cx="76" cy="112" rx="9" ry="16" fill="#e1a779"/><ellipse cx="180" cy="112" rx="9" ry="16" fill="#e1a779"/><path d="M91 98 q10 -8 20 0" stroke="#29211d" stroke-width="5" fill="none" stroke-linecap="round"/><path d="M145 98 q10 -8 20 0" stroke="#29211d" stroke-width="5" fill="none" stroke-linecap="round"/><path d="M128 101 q-5 22 2 27" stroke="#9a674d" stroke-width="3" fill="none" stroke-linecap="round"/><path d="M96 123 Q128 145 160 123" stroke="#842f35" stroke-width="7" fill="none" stroke-linecap="round"/></svg>